<?xml version="1.0" encoding="UTF-8" standalone="no"?>
<!DOCTYPE svg PUBLIC "-//W3C//DTD SVG 1.1//EN" "http://www.w3.org/Graphics/SVG/1.1/DTD/svg11.dtd">
<svg width="100%" height="100%" viewBox="0 0 1173 317" version="1.1" xmlns="http://www.w3.org/2000/svg" xmlns:xlink="http://www.w3.org/1999/xlink" xml:space="preserve" xmlns:serif="http://www.serif.com/" style="fill-rule:evenodd;clip-rule:evenodd;stroke-linejoin:round;stroke-miterlimit:2;">
    <g transform="matrix(1,0,0,1,-1000.327917,-1942.73125)">
        <g transform="matrix(4.166667,0,0,4.166667,0,0)">
            <g transform="matrix(1,0,0,1,521.5967,493.5345)">
                <path d="M0,21.294L0,20.953L-7.696,0.542L-11.293,0.542L-11.293,5.94L-8.993,13.429L-11.293,13.429L-11.293,17.906L-7.611,17.906L-6.607,21.294L0,21.294ZM-281.518,-0.294L-281.518,7.321L-271.15,7.321L-281.518,21.169L-281.518,21.461L-252.281,21.42L-252.281,13.974L-263.159,13.974L-252.825,0.333L-240.732,21.461L-227.764,21.461L-215.714,0.92L-215.714,21.42L-181.28,21.42C-185.382,30.246 -194.335,36.44 -204.711,36.44C-214.25,36.44 -222.575,31.211 -227.052,23.47L-240.4,23.47C-235.128,38.07 -221.111,48.573 -204.711,48.573C-183.791,48.573 -166.765,31.543 -166.765,10.667C-166.765,-10.211 -183.791,-27.279 -204.711,-27.279C-221.07,-27.279 -235.084,-16.82 -240.356,-2.22L-227.01,-2.22C-222.534,-9.917 -214.208,-15.104 -204.711,-15.104C-190.486,-15.104 -178.896,-3.517 -178.896,10.667C-178.896,11.797 -178.98,12.885 -179.104,13.932L-203.958,14.014L-203.958,-0.252L-228.266,-0.294L-234.375,10.083L-240.4,-0.294L-281.518,-0.294ZM-11.293,0.542L-11.293,5.94L-13.553,13.429L-11.293,13.429L-11.293,17.906L-14.974,17.906L-15.98,21.294L-22.549,21.294L-14.724,0.542L-11.293,0.542ZM-69.449,17.906L-69.449,13.429L-67.148,13.429L-69.449,5.94L-69.449,0.542L-65.849,0.542L-58.027,21.294L-64.762,21.294L-65.809,17.906L-69.449,17.906ZM-55.935,0.542L-49.533,0.542L-49.533,8.409L-42.756,0.542L-34.221,0.542L-41.794,8.366L-33.887,21.294L-41.794,21.294L-46.188,12.802L-49.533,16.274L-49.533,21.294L-55.935,21.294L-55.935,0.542ZM-31.5,0.542L-25.059,0.542L-25.059,21.294L-31.5,21.294L-31.5,0.542ZM-69.449,0.542L-72.879,0.542L-79.865,19.162L-79.865,21.294L-74.134,21.294L-73.13,17.906L-69.449,17.906L-69.449,13.429L-71.708,13.429L-69.449,5.94L-69.449,0.542ZM-79.865,2.761L-79.865,0.542L-79.029,0.542L-79.865,2.761ZM-79.865,0.542L-79.865,2.761L-86.77,21.294L-93.755,21.294L-101.58,0.542L-94.887,0.542L-90.199,15.522L-85.599,0.542L-79.865,0.542ZM-79.865,19.162L-79.865,21.294L-80.703,21.294L-79.865,19.162ZM-112.5,21.671L-112.5,16.9C-111.119,16.9 -110.031,16.442 -109.278,15.564C-108.523,14.643 -108.146,13.011 -108.146,10.709C-108.146,8.742 -108.567,7.321 -109.32,6.401C-110.115,5.523 -111.161,5.062 -112.5,5.062L-112.5,0.165C-109.067,0.209 -106.393,1.129 -104.552,2.97C-102.668,4.81 -101.705,7.445 -101.705,10.794C-101.705,13.22 -102.123,15.228 -102.961,16.774C-103.755,18.323 -104.969,19.538 -106.516,20.414C-108.064,21.211 -109.988,21.671 -112.29,21.671L-112.5,21.671ZM-112.5,0.165L-112.541,0.165C-115.931,0.165 -118.566,1.129 -120.449,3.011C-122.332,4.893 -123.293,7.571 -123.293,10.961C-123.293,13.388 -122.793,15.396 -121.872,17.026C-120.908,18.659 -119.653,19.829 -118.105,20.541C-116.643,21.253 -114.76,21.63 -112.5,21.671L-112.5,16.9C-113.84,16.9 -114.928,16.442 -115.68,15.522C-116.475,14.601 -116.85,13.093 -116.85,11.002C-116.85,8.868 -116.475,7.362 -115.68,6.442C-114.885,5.523 -113.84,5.062 -112.541,5.062L-112.5,5.062L-112.5,0.165ZM-163.5,14.476L-157.391,14.099C-157.267,15.061 -156.974,15.814 -156.556,16.356C-155.927,17.194 -154.966,17.612 -153.709,17.612C-152.831,17.612 -152.121,17.403 -151.619,16.986C-151.116,16.524 -150.866,16.023 -150.866,15.478C-150.866,14.935 -151.116,14.434 -151.577,14.014C-152.036,13.596 -153.124,13.179 -154.882,12.802C-157.685,12.173 -159.693,11.338 -160.907,10.291C-162.119,9.245 -162.707,7.906 -162.707,6.274C-162.707,5.187 -162.413,4.182 -161.786,3.22C-161.157,2.3 -160.237,1.548 -158.981,1.003C-157.726,0.46 -156.053,0.165 -153.878,0.165C-151.198,0.165 -149.19,0.667 -147.77,1.673C-146.388,2.635 -145.551,4.226 -145.3,6.401L-151.366,6.733C-151.534,5.814 -151.869,5.102 -152.372,4.685C-152.874,4.267 -153.586,4.058 -154.506,4.058C-155.259,4.058 -155.803,4.226 -156.179,4.517C-156.598,4.852 -156.764,5.229 -156.764,5.689C-156.764,6.024 -156.598,6.315 -156.304,6.566C-156.012,6.859 -155.259,7.11 -154.128,7.362C-151.325,7.947 -149.317,8.573 -148.103,9.204C-146.892,9.83 -146.012,10.582 -145.427,11.505C-144.883,12.426 -144.631,13.429 -144.631,14.601C-144.631,15.898 -144.966,17.153 -145.718,18.283C-146.474,19.412 -147.477,20.247 -148.814,20.792C-150.154,21.378 -151.828,21.671 -153.836,21.671C-157.35,21.671 -159.818,21.002 -161.198,19.662C-162.538,18.283 -163.333,16.566 -163.5,14.476M-141.369,0.542L-134.924,0.542L-134.924,16.231L-124.926,16.231L-124.926,21.294L-141.369,21.294L-141.369,0.542Z" style="fill:rgb(0,105,170);fill-rule:nonzero;"/>
            </g>
        </g>
    </g>
</svg>
